<?xml version="1.0" encoding="utf-8"?>
<!-- Generator: Adobe Illustrator 15.0.0, SVG Export Plug-In . SVG Version: 6.00 Build 0)  -->
<!DOCTYPE svg PUBLIC "-//W3C//DTD SVG 1.1//EN" "http://www.w3.org/Graphics/SVG/1.1/DTD/svg11.dtd">
<svg version="1.1" id="Layer_1" xmlns="http://www.w3.org/2000/svg" xmlns:xlink="http://www.w3.org/1999/xlink" x="0px" y="0px"
	 width="16px" height="16px" viewBox="0 0 16 16" enable-background="new 0 0 16 16" xml:space="preserve">
<path fill-rule="evenodd" clip-rule="evenodd" fill="#333333" d="M8.018,1.058c-0.949,0-1.59,1.309-1.59,1.309
	S2.05,9.524,0.557,11.942c-1.497,2.417,0.497,3,0.497,3H7.97H8.03h6.915c0,0,1.994-0.583,0.497-3
	c-1.493-2.418-5.89-9.625-5.89-9.625S8.967,1.058,8.018,1.058z M7.033,11.942c0-0.555,0.446-1,0.997-1c0.55,0,0.997,0.445,0.997,1
	c0,0.552-0.447,1-0.997,1C7.479,12.942,7.033,12.494,7.033,11.942z M7.033,5.442c0-0.553,0.446-1,0.997-1
	c0.55,0,0.997,0.447,0.997,1S8.594,9.958,8.043,9.958C7.493,9.958,7.033,5.995,7.033,5.442z"/>
</svg>
