<?xml version="1.0" encoding="utf-8"?>
<!-- Generator: Adobe Illustrator 15.0.0, SVG Export Plug-In . SVG Version: 6.00 Build 0)  -->
<!DOCTYPE svg PUBLIC "-//W3C//DTD SVG 1.1//EN" "http://www.w3.org/Graphics/SVG/1.1/DTD/svg11.dtd">
<svg version="1.1" id="Layer_1" xmlns="http://www.w3.org/2000/svg" xmlns:xlink="http://www.w3.org/1999/xlink" x="0px" y="0px"
	 width="16px" height="16px" viewBox="0 0 16 16" enable-background="new 0 0 16 16" xml:space="preserve">
<path fill-rule="evenodd" clip-rule="evenodd" fill="#333333" d="M0.028,5.832c0,3.219,2.612,5.831,5.838,5.831
	c1.195,0,2.301-0.356,3.227-0.972l5.163,5.214c0,0,0.505,0.395,1.255-0.422c0.841-0.773,0.272-1.251,0.272-1.251l-5.03-5.21
	c0.602-0.914,0.947-2.013,0.947-3.19C11.701,2.612,9.091,0,5.867,0C2.64,0,0.028,2.612,0.028,5.832z M2.152,5.832
	c0-2.05,1.661-3.711,3.714-3.711c2.05,0,3.714,1.661,3.714,3.711s-1.665,3.71-3.714,3.71C3.813,9.542,2.152,7.881,2.152,5.832z"/>
</svg>
